<?xml version="1.0" standalone="no"?><!DOCTYPE svg PUBLIC "-//W3C//DTD SVG 1.1//EN" "http://www.w3.org/Graphics/SVG/1.1/DTD/svg11.dtd"><svg t="1765435138104" class="icon" viewBox="0 0 1024 1024" version="1.1" xmlns="http://www.w3.org/2000/svg" p-id="9993" xmlns:xlink="http://www.w3.org/1999/xlink" width="200" height="200"><path d="M752.128 719.008c-17.792-3.2-34.56 8.448-37.76 26.24s8.448 34.56 26.24 37.76c93.312 17.792 148.864 47.744 148.864 62.336 0 3.2-4.736 8.448-17.792 17.792-17.792 11.52-44.032 23.04-78.592 33.024-73.984 21.504-173.568 33.024-279.936 33.024s-208.128-11.52-279.936-33.024c-34.56-9.984-60.8-21.504-78.592-33.024-14.72-9.984-19.968-14.72-19.968-17.792 0-13.056 50.816-40.832 135.808-58.752a31.872 31.872 0 0 0 24.704-39.296c-1.536-17.792-19.968-29.312-37.76-24.704-116.352 24.704-188.16 64-188.16 122.624 0 91.776 196.608 147.328 442.496 147.328s442.496-55.552 442.496-147.328c-0.256-60.672-77.312-102.016-202.112-126.208z m55.04-414.08c0-163.072-132.096-295.68-295.68-295.68-163.072 0-295.68 132.096-295.68 295.68 0 59.776 17.792 114.816 48.256 161.536h-0.512l221.824 353.92a28.8 28.8 0 0 0 26.752 16.256c11.52 0 21.504-6.784 26.752-16.256l221.824-353.92h-0.512a303.68 303.68 0 0 0 46.976-161.536z m-295.68 134.656c-74.496 0-134.784-60.288-134.784-134.784s60.288-134.784 134.784-134.784 134.784 60.288 134.784 134.784a134.88 134.88 0 0 1-134.784 134.784z m0 0" p-id="9994" fill="#28df99"></path></svg>